<?xml version="1.0" encoding="UTF-8" standalone="no"?>
<svg
   xmlns:dc="http://purl.org/dc/elements/1.1/"
   xmlns:cc="http://creativecommons.org/ns#"
   xmlns:rdf="http://www.w3.org/1999/02/22-rdf-syntax-ns#"
   xmlns:svg="http://www.w3.org/2000/svg"
   xmlns="http://www.w3.org/2000/svg"
   xmlns:xlink="http://www.w3.org/1999/xlink"
   xmlns:sodipodi="http://sodipodi.sourceforge.net/DTD/sodipodi-0.dtd"
   xmlns:inkscape="http://www.inkscape.org/namespaces/inkscape"
   version="1.1"
   id="Layer_1"
   x="0px"
   y="0px"
   viewBox="0 0 2199.2663 401.58273"
   xml:space="preserve"
   sodipodi:docname="SPIDER_SEARCH_NHP.svg"
   inkscape:version="1.0.2-2 (e86c870879, 2021-01-15)"
   width="2199.2664"
   height="401.58273"><metadata
   id="metadata56"><rdf:RDF><cc:Work
       rdf:about=""><dc:format>image/svg+xml</dc:format><dc:type
         rdf:resource="http://purl.org/dc/dcmitype/StillImage" /><dc:title /></cc:Work></rdf:RDF></metadata><defs
   id="defs54"><linearGradient
     id="A"
     y2="13.056044"
     x2="59.034363"
     y1="13.056044"
     x1="32.914318"
     gradientTransform="matrix(0.15492272,0,0,0.2234661,115.18551,-1.2043893)"
     gradientUnits="userSpaceOnUse"><stop
       stop-color="#272023"
       offset="10.7%"
       id="stop143" /><stop
       stop-color="#735f5d"
       offset="100%"
       id="stop145" /></linearGradient><radialGradient
     id="B"
     cy="0.5"
     cx="0.5"
     r="0.50999999"
     fx="0.5"
     fy="0.5"><stop
       stop-color="#251e22"
       offset=".6%"
       id="stop148" /><stop
       stop-color="#272023"
       offset="69.1%"
       id="stop150" /></radialGradient><linearGradient
     id="C"
     y2="42.989544"
     x2="27.541838"
     y1="42.989544"
     x1="-0.0082959179"
     gradientTransform="matrix(0.18874049,0,0,0.18342634,115.18551,-1.2043893)"
     gradientUnits="userSpaceOnUse"><stop
       stop-color="#5e4e4c"
       offset=".6%"
       id="stop153" /><stop
       stop-color="#272023"
       offset="77.5%"
       id="stop155" /></linearGradient><linearGradient
     id="D"
     y2="45.214161"
     x2="30.631266"
     y1="45.214161"
     x1="17.866381"
     gradientTransform="matrix(0.21092086,0,0,0.16413729,115.18551,-1.2043893)"
     gradientUnits="userSpaceOnUse"><stop
       stop-color="#eb4e46"
       offset=".6%"
       id="stop158" /><stop
       stop-color="#b3544a"
       offset="100%"
       id="stop160" /></linearGradient><linearGradient
     id="E"
     y2="26.863422"
     x2="57.870155"
     y1="26.863422"
     x1="33.509441"
     gradientTransform="matrix(0.23982969,0,0,0.14435234,115.18551,-1.2043893)"
     gradientUnits="userSpaceOnUse"><stop
       stop-color="#272023"
       offset="0%"
       id="stop163" /><stop
       stop-color="#735f5d"
       offset="100%"
       id="stop165" /></linearGradient><linearGradient
     id="F"
     y2="54.915905"
     x2="41.787804"
     y1="54.915905"
     x1="26.743567"
     gradientTransform="matrix(0.30271105,0,0,0.11436642,115.18551,-1.2043893)"
     gradientUnits="userSpaceOnUse"><stop
       stop-color="#272023"
       offset="16.3%"
       id="stop168" /><stop
       stop-color="#605356"
       offset="100%"
       id="stop170" /></linearGradient><linearGradient
     id="G"
     y2="25.549492"
     x2="66.569786"
     y1="25.549492"
     x1="53.15963"
     gradientTransform="matrix(0.08304772,0,0,0.41686845,115.18551,-1.2043893)"
     gradientUnits="userSpaceOnUse"><stop
       stop-color="#272023"
       offset="16.3%"
       id="stop173" /><stop
       stop-color="#605356"
       offset="100%"
       id="stop175" /></linearGradient><linearGradient
     id="H"
     y2="27.57782"
     x2="78.034531"
     y1="27.57782"
     x1="64.445358"
     gradientTransform="matrix(0.10812265,0,0,0.32019169,115.18551,-1.2043893)"
     gradientUnits="userSpaceOnUse"><stop
       stop-color="#272023"
       offset="16.3%"
       id="stop178" /><stop
       stop-color="#605356"
       offset="100%"
       id="stop180" /></linearGradient><linearGradient
     inkscape:collect="always"
     xlink:href="#A"
     id="linearGradient444"
     gradientUnits="userSpaceOnUse"
     gradientTransform="matrix(-0.15492272,0,0,0.2234661,263.96448,-3.9413053)"
     x1="32.914318"
     y1="13.056044"
     x2="59.034363"
     y2="13.056044" /><radialGradient
     inkscape:collect="always"
     xlink:href="#B"
     id="radialGradient446"
     gradientUnits="userSpaceOnUse"
     gradientTransform="matrix(-0.21529343,0,0,0.16080369,263.96448,-3.9413053)"
     cx="25.673363"
     cy="35.195694"
     fx="25.673363"
     fy="35.195694"
     r="3.848408" /><linearGradient
     inkscape:collect="always"
     xlink:href="#C"
     id="linearGradient448"
     gradientUnits="userSpaceOnUse"
     gradientTransform="matrix(-0.18874049,0,0,0.18342634,263.96448,-3.9413053)"
     x1="-0.0082959179"
     y1="42.989544"
     x2="27.541838"
     y2="42.989544" /><radialGradient
     inkscape:collect="always"
     xlink:href="#B"
     id="radialGradient450"
     gradientUnits="userSpaceOnUse"
     gradientTransform="matrix(-0.21540079,0,0,0.16072354,263.96448,-3.9413053)"
     cx="35.223457"
     cy="39.744759"
     fx="35.223457"
     fy="39.744759"
     r="7.2354808" /><linearGradient
     inkscape:collect="always"
     xlink:href="#D"
     id="linearGradient452"
     gradientUnits="userSpaceOnUse"
     gradientTransform="matrix(-0.21092086,0,0,0.16413729,263.96448,-3.9413053)"
     x1="17.866381"
     y1="45.214161"
     x2="30.631266"
     y2="45.214161" /><linearGradient
     inkscape:collect="always"
     xlink:href="#E"
     id="linearGradient454"
     gradientUnits="userSpaceOnUse"
     gradientTransform="matrix(-0.23982969,0,0,0.14435234,263.96448,-3.9413053)"
     x1="33.509441"
     y1="26.863422"
     x2="57.870155"
     y2="26.863422" /><linearGradient
     inkscape:collect="always"
     xlink:href="#F"
     id="linearGradient456"
     gradientUnits="userSpaceOnUse"
     gradientTransform="matrix(-0.30271105,0,0,0.11436642,263.96448,-3.9413053)"
     x1="26.743567"
     y1="54.915905"
     x2="41.787804"
     y2="54.915905" /><linearGradient
     inkscape:collect="always"
     xlink:href="#G"
     id="linearGradient458"
     gradientUnits="userSpaceOnUse"
     gradientTransform="matrix(-0.08304772,0,0,0.41686845,263.96448,-3.9413053)"
     x1="53.15963"
     y1="25.549492"
     x2="66.569786"
     y2="25.549492" /><linearGradient
     inkscape:collect="always"
     xlink:href="#H"
     id="linearGradient460"
     gradientUnits="userSpaceOnUse"
     gradientTransform="matrix(-0.10812265,0,0,0.32019169,263.96448,-3.9413053)"
     x1="64.445358"
     y1="27.57782"
     x2="78.034531"
     y2="27.57782" /><linearGradient
     inkscape:collect="always"
     xlink:href="#A"
     id="linearGradient462"
     gradientUnits="userSpaceOnUse"
     gradientTransform="matrix(0.15492272,0,0,0.2234661,146.24352,-4.3523153)"
     x1="32.914318"
     y1="13.056044"
     x2="59.034363"
     y2="13.056044" /><radialGradient
     inkscape:collect="always"
     xlink:href="#B"
     id="radialGradient464"
     gradientUnits="userSpaceOnUse"
     gradientTransform="matrix(0.21529343,0,0,0.16080369,146.24352,-4.3523153)"
     cx="25.673363"
     cy="35.195694"
     fx="25.673363"
     fy="35.195694"
     r="3.848408" /><linearGradient
     inkscape:collect="always"
     xlink:href="#C"
     id="linearGradient466"
     gradientUnits="userSpaceOnUse"
     gradientTransform="matrix(0.18874049,0,0,0.18342634,146.24352,-4.3523153)"
     x1="-0.0082959179"
     y1="42.989544"
     x2="27.541838"
     y2="42.989544" /><radialGradient
     inkscape:collect="always"
     xlink:href="#B"
     id="radialGradient468"
     gradientUnits="userSpaceOnUse"
     gradientTransform="matrix(0.21540079,0,0,0.16072354,146.24352,-4.3523153)"
     cx="35.223457"
     cy="39.744759"
     fx="35.223457"
     fy="39.744759"
     r="7.2354808" /><linearGradient
     inkscape:collect="always"
     xlink:href="#D"
     id="linearGradient470"
     gradientUnits="userSpaceOnUse"
     gradientTransform="matrix(0.21092086,0,0,0.16413729,146.24352,-4.3523153)"
     x1="17.866381"
     y1="45.214161"
     x2="30.631266"
     y2="45.214161" /><linearGradient
     inkscape:collect="always"
     xlink:href="#E"
     id="linearGradient472"
     gradientUnits="userSpaceOnUse"
     gradientTransform="matrix(0.23982969,0,0,0.14435234,146.24352,-4.3523153)"
     x1="33.509441"
     y1="26.863422"
     x2="57.870155"
     y2="26.863422" /><linearGradient
     inkscape:collect="always"
     xlink:href="#F"
     id="linearGradient474"
     gradientUnits="userSpaceOnUse"
     gradientTransform="matrix(0.30271105,0,0,0.11436642,146.24352,-4.3523153)"
     x1="26.743567"
     y1="54.915905"
     x2="41.787804"
     y2="54.915905" /><linearGradient
     inkscape:collect="always"
     xlink:href="#G"
     id="linearGradient476"
     gradientUnits="userSpaceOnUse"
     gradientTransform="matrix(0.08304772,0,0,0.41686845,146.24352,-4.3523153)"
     x1="53.15963"
     y1="25.549492"
     x2="66.569786"
     y2="25.549492" /><linearGradient
     inkscape:collect="always"
     xlink:href="#H"
     id="linearGradient478"
     gradientUnits="userSpaceOnUse"
     gradientTransform="matrix(0.10812265,0,0,0.32019169,146.24352,-4.3523153)"
     x1="64.445358"
     y1="27.57782"
     x2="78.034531"
     y2="27.57782" /><linearGradient
     inkscape:collect="always"
     xlink:href="#A"
     id="linearGradient850"
     gradientUnits="userSpaceOnUse"
     gradientTransform="matrix(0.15492272,0,0,0.2234661,99.355292,-699.04513)"
     x1="32.914318"
     y1="13.056044"
     x2="59.034363"
     y2="13.056044" /><radialGradient
     inkscape:collect="always"
     xlink:href="#B"
     id="radialGradient852"
     gradientUnits="userSpaceOnUse"
     gradientTransform="matrix(0.21529343,0,0,0.16080369,99.355292,-699.04513)"
     cx="25.673363"
     cy="35.195694"
     fx="25.673363"
     fy="35.195694"
     r="3.848408" /><linearGradient
     inkscape:collect="always"
     xlink:href="#C"
     id="linearGradient854"
     gradientUnits="userSpaceOnUse"
     gradientTransform="matrix(0.18874049,0,0,0.18342634,99.355292,-699.04513)"
     x1="-0.0082959179"
     y1="42.989544"
     x2="27.541838"
     y2="42.989544" /><radialGradient
     inkscape:collect="always"
     xlink:href="#B"
     id="radialGradient856"
     gradientUnits="userSpaceOnUse"
     gradientTransform="matrix(0.21540079,0,0,0.16072354,99.355292,-699.04513)"
     cx="35.223457"
     cy="39.744759"
     fx="35.223457"
     fy="39.744759"
     r="7.2354808" /><linearGradient
     inkscape:collect="always"
     xlink:href="#D"
     id="linearGradient858"
     gradientUnits="userSpaceOnUse"
     gradientTransform="matrix(0.21092086,0,0,0.16413729,99.355292,-699.04513)"
     x1="17.866381"
     y1="45.214161"
     x2="30.631266"
     y2="45.214161" /><linearGradient
     inkscape:collect="always"
     xlink:href="#E"
     id="linearGradient860"
     gradientUnits="userSpaceOnUse"
     gradientTransform="matrix(0.23982969,0,0,0.14435234,99.355292,-699.04513)"
     x1="33.509441"
     y1="26.863422"
     x2="57.870155"
     y2="26.863422" /><linearGradient
     inkscape:collect="always"
     xlink:href="#F"
     id="linearGradient862"
     gradientUnits="userSpaceOnUse"
     gradientTransform="matrix(0.30271105,0,0,0.11436642,99.355292,-699.04513)"
     x1="26.743567"
     y1="54.915905"
     x2="41.787804"
     y2="54.915905" /><linearGradient
     inkscape:collect="always"
     xlink:href="#G"
     id="linearGradient864"
     gradientUnits="userSpaceOnUse"
     gradientTransform="matrix(0.08304772,0,0,0.41686845,99.355292,-699.04513)"
     x1="53.15963"
     y1="25.549492"
     x2="66.569786"
     y2="25.549492" /><linearGradient
     inkscape:collect="always"
     xlink:href="#H"
     id="linearGradient866"
     gradientUnits="userSpaceOnUse"
     gradientTransform="matrix(0.10812265,0,0,0.32019169,99.355292,-699.04513)"
     x1="64.445358"
     y1="27.57782"
     x2="78.034531"
     y2="27.57782" /><linearGradient
     inkscape:collect="always"
     xlink:href="#A"
     id="linearGradient898"
     gradientUnits="userSpaceOnUse"
     gradientTransform="matrix(0.15492272,0,0,0.2234661,131.01573,-699.04513)"
     x1="32.914318"
     y1="13.056044"
     x2="59.034363"
     y2="13.056044" /><radialGradient
     inkscape:collect="always"
     xlink:href="#B"
     id="radialGradient900"
     gradientUnits="userSpaceOnUse"
     gradientTransform="matrix(0.21529343,0,0,0.16080369,131.01573,-699.04513)"
     cx="25.673363"
     cy="35.195694"
     fx="25.673363"
     fy="35.195694"
     r="3.848408" /><linearGradient
     inkscape:collect="always"
     xlink:href="#C"
     id="linearGradient902"
     gradientUnits="userSpaceOnUse"
     gradientTransform="matrix(0.18874049,0,0,0.18342634,131.01573,-699.04513)"
     x1="-0.0082959179"
     y1="42.989544"
     x2="27.541838"
     y2="42.989544" /><radialGradient
     inkscape:collect="always"
     xlink:href="#B"
     id="radialGradient904"
     gradientUnits="userSpaceOnUse"
     gradientTransform="matrix(0.21540079,0,0,0.16072354,131.01573,-699.04513)"
     cx="35.223457"
     cy="39.744759"
     fx="35.223457"
     fy="39.744759"
     r="7.2354808" /><linearGradient
     inkscape:collect="always"
     xlink:href="#D"
     id="linearGradient906"
     gradientUnits="userSpaceOnUse"
     gradientTransform="matrix(0.21092086,0,0,0.16413729,131.01573,-699.04513)"
     x1="17.866381"
     y1="45.214161"
     x2="30.631266"
     y2="45.214161" /><linearGradient
     inkscape:collect="always"
     xlink:href="#E"
     id="linearGradient908"
     gradientUnits="userSpaceOnUse"
     gradientTransform="matrix(0.23982969,0,0,0.14435234,131.01573,-699.04513)"
     x1="33.509441"
     y1="26.863422"
     x2="57.870155"
     y2="26.863422" /><linearGradient
     inkscape:collect="always"
     xlink:href="#F"
     id="linearGradient910"
     gradientUnits="userSpaceOnUse"
     gradientTransform="matrix(0.30271105,0,0,0.11436642,131.01573,-699.04513)"
     x1="26.743567"
     y1="54.915905"
     x2="41.787804"
     y2="54.915905" /><linearGradient
     inkscape:collect="always"
     xlink:href="#G"
     id="linearGradient912"
     gradientUnits="userSpaceOnUse"
     gradientTransform="matrix(0.08304772,0,0,0.41686845,131.01573,-699.04513)"
     x1="53.15963"
     y1="25.549492"
     x2="66.569786"
     y2="25.549492" /><linearGradient
     inkscape:collect="always"
     xlink:href="#H"
     id="linearGradient914"
     gradientUnits="userSpaceOnUse"
     gradientTransform="matrix(0.10812265,0,0,0.32019169,131.01573,-699.04513)"
     x1="64.445358"
     y1="27.57782"
     x2="78.034531"
     y2="27.57782" /></defs><sodipodi:namedview
   pagecolor="#ffffff"
   bordercolor="#666666"
   borderopacity="1"
   objecttolerance="10"
   gridtolerance="10"
   guidetolerance="10"
   inkscape:pageopacity="0"
   inkscape:pageshadow="2"
   inkscape:window-width="1920"
   inkscape:window-height="991"
   id="namedview52"
   showgrid="false"
   inkscape:zoom="0.64203229"
   inkscape:cx="1099.6332"
   inkscape:cy="200.79137"
   inkscape:window-x="-9"
   inkscape:window-y="-9"
   inkscape:window-maximized="1"
   inkscape:current-layer="g981"
   inkscape:document-rotation="0" />
<style
   type="text/css"
   id="style34">
	.st0{fill:#CD163F;}
	.st1{fill:url(#SVGID_1_);}
</style>

<linearGradient
   id="SVGID_1_"
   gradientUnits="userSpaceOnUse"
   x1="67.407097"
   y1="32.851299"
   x2="275.35999"
   y2="393.0351"
   gradientTransform="matrix(1,0,0,-1,0,396)">
	<stop
   offset="0.28"
   style="stop-color:#CD163F"
   id="stop40" />
	<stop
   offset="0.9"
   style="stop-color:#F58025"
   id="stop42" />
</linearGradient>



<style
   id="style139"><![CDATA[.B{fill-rule:nonzero}.C{stroke-linejoin:miter}.D{stroke-width:.258}]]></style><g
   id="g981"
   transform="translate(85.075374,3750.7021)"><path
     d="m 1095.5986,-3572.7388 c 0,11.4132 0,22.3507 0,33.7639 -32.3375,0 -66.1015,0 -98.4382,0 0,-16.1691 0,-32.3375 0,-48.9816 -31.8617,0 -63.2477,0 -95.1095,0 0,16.1684 0,32.3367 0,48.9816 -14.74188,0 -29.48378,0 -44.22568,0 0,-39.4705 0,-78.9411 0,-118.4117 -3.32947,0 -6.18237,0 -9.51103,0 0,39.4706 0,78.9412 0,118.4117 H 793.1502 l -76.08745,-89.4029 c 0,29.9588 0,59.9183 0,89.4029 -14.7419,0 -29.48379,0 -44.22577,0 l -0.47552,-131.7272 h 61.34539 l 70.85659,78.9412 c 0,-26.1551 0,-52.786 0,-78.9412 41.37279,0 56.11469,0 97.48746,0 0,14.267 0,28.5331 0,42.7993 31.8618,0 63.2478,0 95.1095,0 0,-14.2662 0,-28.5323 0,-42.7993 14.2662,0 28.5323,0 42.7993,0 0,38.9949 0,78.4655 0,117.4603 3.3286,0 6.6573,0 10.4617,0 0,-38.9948 0,-78.4654 0,-117.4603 h 136.4823 c 6.6573,0 11.4133,3.8045 11.4133,11.4133 0,3.8044 0,75.6125 0,75.6125 0,6.1816 -4.756,10.4617 -10.4626,10.4617 h -92.2558 z m 58.9676,-58.0169 c 0,-1.9022 -1.4264,-3.8044 -3.8044,-3.8044 h -55.6389 v 23.3014 h 55.6389 c 1.9022,0 3.8044,-2.3772 3.8044,-3.8044 0,-0.9507 0,-15.6926 0,-15.6926 z"
     fill="#ffffff"
     id="path258"
     style="fill:#0d4486;fill-opacity:1;stroke-width:0.123173" /><text
     xml:space="preserve"
     style="font-size:148.771px;line-height:0.85;font-family:Arial;-inkscape-font-specification:'Arial, Normal';stroke-width:1"
     x="304.49823"
     y="-3402.7378"
     id="text374"><tspan
       sodipodi:role="line"
       x="304.49823"
       y="-3402.7378"
       style="font-style:normal;font-variant:normal;font-weight:normal;font-stretch:normal;font-family:'BankGothic Lt BT';-inkscape-font-specification:'BankGothic Lt BT';stroke-width:1"
       id="tspan372">SPIDER  SEARCH</tspan></text><g
     style="fill:#ffffff;fill-rule:evenodd;stroke:#000000;stroke-width:0.186064;stroke-linecap:round;stroke-linejoin:round"
     id="g408"
     transform="matrix(5.3742389,0,0,5.374725,-87.720098,-3746.9363)"><g
       id="use376"
       style="stroke-width:0.186064"
       transform="translate(0.5,0.5)"><g
         class="B C D"
         id="g832"><path
           d="M 49.143,0.786 43.331,0.029 c -2.023,-0.254 -5.81,1.263 -5.81,1.263 l -4.087,7.251 c -0.968,1.591 -3.216,6.811 -2.989,7.656 0.227,0.845 8.087,13.394 8.087,13.394 L 29.706,24.312 C 29.222,23.99 29.434,19.486 29.434,19.486 l 1.515,1.516 c 1.013,1.012 1.772,1.517 1.772,1.517 0,0 -0.622,-1.786 -1.886,-3.05 -1.264,-1.264 -2.1,-1.891 -2.663,-1.752 -0.563,0.139 -1.095,6.628 -0.505,7.582 0.59,0.954 8.843,6.063 8.843,6.063 l 3.284,-0.253 1.011,-2.527 c 0,0 -2.778,-4.042 -4.043,-6.568 -1.265,-2.526 -4.041,-6.824 -4.041,-6.824 0,0 1.767,-4.8 2.778,-6.317 1.011,-1.517 2.779,-5.812 2.779,-5.812 0,0 2.527,-2.021 4.802,-1.768 2.275,0.253 6.064,-0.505 6.064,-0.505 z"
           fill="url(#A)"
           id="path820"
           style="fill:url(#linearGradient850);stroke-width:0.00952784" /><path
           d="m 34.064,33.673 -2.421,-3.712 c 0,0 -1.614,-2.582 -2.422,-2.582 -0.808,0 -1.453,-0.486 -1.937,0 -0.484,0.486 -1.13,1.452 -1.454,2.422 l -0.484,1.613 8.717,2.26 z"
           fill="url(#B)"
           id="path822"
           style="fill:url(#radialGradient852);stroke-width:0.00952784" /><path
           d="m 0,55.955 c 0,0 0.324,-0.806 0.808,-1.132 0.484,-0.326 4.842,-11.299 5.328,-12.43 0.486,-1.131 8.554,-13.399 9.201,-13.238 0.647,0.161 5.327,-0.484 6.943,-0.322 1.616,0.162 3.874,1.292 4.52,1.776 0.646,0.484 1.13,1.776 1.13,1.776 l -3.39,0.968 c 0,0 -0.97,-1.128 -1.938,-1.29 -0.968,-0.162 -4.682,0 -5.65,0.162 -0.968,0.162 -9.041,9.524 -9.364,10.169 -0.323,0.645 -4.844,10.01 -5.004,10.818 L 2.26,54.825 c 0,0 -0.323,0.97 -0.967,0.97 -0.644,0 -1.293,0.16 -1.293,0.16 z"
           fill="url(#C)"
           id="path824"
           style="fill:url(#linearGradient854);stroke-width:0.00952784" /><path
           d="m 33.094,33.514 c 0.325,-0.484 1.779,-0.968 2.423,-1.452 0.644,-0.484 0.97,-2.422 0.97,-2.422 0,0 1.614,-0.97 3.39,-1.13 1.776,-0.16 3.39,-0.484 4.842,-0.162 1.452,0.322 2.259,0.162 2.908,0.969 0.649,0.807 1.612,4.198 1.291,5.167 -0.321,0.969 -3.229,3.389 -4.036,4.196 -0.807,0.807 -3.551,1.453 -4.36,1.453 -0.809,0 -2.097,0.323 -3.228,0.323 -1.131,0 -4.036,-3.552 -4.52,-4.198 -0.484,-0.646 -0.002,-2.261 0.319,-2.744 z"
           fill="url(#B)"
           id="path826"
           style="fill:url(#radialGradient856);stroke-width:0.00952784" /><path
           d="m 35.841,35.451 c 0.646,0.806 1.13,1.453 1.453,2.26 0.323,0.807 0.645,4.842 -0.807,6.134 -1.452,1.292 -3.877,3.068 -4.843,3.712 -0.966,0.644 -1.938,1.938 -3.553,1.938 -1.615,0 -3.066,-0.968 -4.842,-1.938 -1.776,-0.97 -3.552,-2.582 -4.036,-3.872 -0.484,-1.29 -0.646,-4.198 0.484,-5.814 1.13,-1.616 3.874,-4.358 3.874,-4.358 0,0 1.938,-1.452 3.714,-1.776 1.776,-0.324 3.228,-0.162 4.198,0.162 0.97,0.324 3.712,2.742 4.359,3.551 z"
           fill="#272023"
           id="path828"
           style="stroke-width:0.00952784" /><path
           d="m 20.665,44.653 c -0.322,-0.968 -0.645,-3.068 -0.16,-4.36 0.485,-1.292 3.228,-4.682 5.166,-5.327 1.938,-0.645 3.066,-0.808 5.326,-0.645 2.26,0.163 3.714,1.936 3.714,1.936 0,0 -2.582,0 -4.037,0.486 -1.455,0.486 -3.227,1.612 -4.681,2.744 -1.454,1.132 -2.422,2.905 -2.584,3.873 -0.162,0.968 -0.16,1.454 -0.806,1.938 -0.646,0.484 -1.292,0 -1.292,0 0,0 -0.322,0.322 -0.645,-0.645 z"
           fill="url(#D)"
           id="path830"
           style="fill:url(#linearGradient858);stroke-width:0.00952784" /></g><path
         d="m 21.795,41.426 c 0,0 -0.323,-2.262 1.454,-3.876 1.777,-1.614 3.389,-1.776 3.389,-1.776 0,0 -1.451,0.646 -3.228,2.422 -1.777,1.776 -1.615,3.229 -1.615,3.229 z"
         stroke="none"
         opacity="0.3"
         class="B"
         id="path834"
         style="stroke-width:0.00732973" /><g
         class="C D"
         id="g844"><path
           d="m 44.882,29.801 c 0,0 -2.098,-9.688 -1.614,-10.656 0.484,-0.968 5.004,-3.876 6.296,-4.358 1.292,-0.482 8.719,-3.39 9.362,-3.39 0.643,0 10.495,0.484 11.141,0.645 0.646,0.161 4.52,1.778 4.52,1.778 0,0 -3.066,0 -4.842,-0.324 -1.776,-0.324 -9.365,-0.646 -10.654,-0.486 -1.289,0.16 -3.552,2.26 -4.52,2.746 -0.968,0.486 -4.682,2.584 -5.651,2.906 -0.969,0.322 -3.067,0.968 -3.229,1.776 -0.162,0.808 2.099,9.848 2.099,9.848 l -2.907,-0.482 z"
           fill="url(#E)"
           class="B"
           id="path836"
           style="fill:url(#linearGradient860);stroke-width:0.00952784" /><path
           d="m 67.968,37.551 c 0,0 -0.646,0.968 -1.452,0.806 -0.806,-0.162 -1.292,0.162 -1.938,-0.484 -0.646,-0.646 -6.78,-2.421 -8.396,-3.228 -1.616,-0.807 -4.842,-0.808 -5.972,-0.97 -1.13,-0.162 -3.231,-1.128 -3.715,-0.966 -0.484,0.162 0.325,0.644 -0.484,1.29 -0.809,0.646 -1.452,0.324 -1.936,-0.162 -0.484,-0.486 -0.807,-2.098 -0.323,-2.906 0.484,-0.808 0.807,-1.614 1.938,-1.776 1.131,-0.162 3.229,0.808 5.004,1.454 1.775,0.646 4.36,0.968 5.488,1.454 1.128,0.486 3.229,2.422 5.006,2.906 1.777,0.484 3.228,1.453 4.036,1.776 0.808,0.323 2.746,0.805 2.746,0.805 z"
           fill="url(#F)"
           class="B"
           id="path838"
           style="fill:url(#linearGradient862);stroke-width:0.00952784" /><path
           d="m 23.732,72.26 1.614,-10.98 c 0.324,-1.291 1.454,-13.883 1.616,-14.691 0.162,-0.808 -0.162,-2.744 0.322,-3.23 0.484,-0.486 0.646,-1.129 1.452,-1.129 0.806,0 0.969,1.776 0.969,1.776 l -1.615,10.17 c 0,0.808 -1.29,5.652 -1.454,6.942 -0.164,1.29 -0.807,9.846 -1.612,10.494 -0.805,0.648 -1.291,0.648 -1.291,0.648 z"
           fill="url(#G)"
           class="B"
           id="path840"
           style="fill:url(#linearGradient864);stroke-width:0.00952784" /><path
           d="m 44.234,58.86 c 0,0 0.646,0.645 0.97,0 0.324,-0.645 0,-1.452 -0.324,-2.584 -0.324,-1.132 -1.13,-2.583 -1.775,-4.036 -0.645,-1.453 -0.485,-7.748 -1.131,-8.717 -0.646,-0.969 -1.29,-5.652 -1.454,-6.458 -0.164,-0.806 -0.969,-1.292 -1.775,-1.292 -0.806,0 -1.292,0.97 -1.292,0.97 l 0.646,3.873 c 0.324,1.454 2.098,6.458 2.26,7.266 0.162,0.808 0.97,1.13 1.292,2.42 0.322,1.29 -0.322,2.26 0.322,3.392 0.644,1.132 1.615,2.26 1.776,3.067 l 0.485,2.097 z"
           fill="url(#H)"
           class="B"
           id="path842"
           style="fill:url(#linearGradient866);stroke-width:0.00952784" /></g><path
         d="m 45.29,18.538 c 0,0 -0.15,-0.997 2.885,-2.631 3.035,-1.634 5.908,-2.089 5.908,-2.089 0,0 -2.542,0.803 -5.561,2.565 -3.019,1.762 -3.23,2.154 -3.23,2.154 z m 1.413,11.274 c 0,0 0.354,-0.52 2.969,0.442 a 22.55,22.55 0 0 1 4.605,2.354 c 0,0 -1.94,-1.054 -4.602,-1.953 L 46.704,29.812 Z M 31.435,15.046 c 0,0 -0.569,-0.414 0.749,-3.464 1.318,-3.05 3.079,-5.365 3.079,-5.365 0,0 -1.368,2.259 -2.618,5.364 l -1.21,3.466 z"
         stroke="none"
         opacity="0.3"
         class="B"
         id="path846"
         style="stroke-width:0.00732973" /></g><symbol
       id="symbol406"
       overflow="visible"
       style="stroke-width:0.0369296"><g
         class="B C D"
         id="g390"><path
           d="M 49.143,0.786 43.331,0.029 c -2.023,-0.254 -5.81,1.263 -5.81,1.263 l -4.087,7.251 c -0.968,1.591 -3.216,6.811 -2.989,7.656 0.227,0.845 8.087,13.394 8.087,13.394 L 29.706,24.312 C 29.222,23.99 29.434,19.486 29.434,19.486 l 1.515,1.516 c 1.013,1.012 1.772,1.517 1.772,1.517 0,0 -0.622,-1.786 -1.886,-3.05 -1.264,-1.264 -2.1,-1.891 -2.663,-1.752 -0.563,0.139 -1.095,6.628 -0.505,7.582 0.59,0.954 8.843,6.063 8.843,6.063 l 3.284,-0.253 1.011,-2.527 c 0,0 -2.778,-4.042 -4.043,-6.568 -1.265,-2.526 -4.041,-6.824 -4.041,-6.824 0,0 1.767,-4.8 2.778,-6.317 1.011,-1.517 2.779,-5.812 2.779,-5.812 0,0 2.527,-2.021 4.802,-1.768 2.275,0.253 6.064,-0.505 6.064,-0.505 z"
           fill="url(#A)"
           id="path378"
           style="fill:url(#linearGradient462);stroke-width:0.00952784" /><path
           d="m 34.064,33.673 -2.421,-3.712 c 0,0 -1.614,-2.582 -2.422,-2.582 -0.808,0 -1.453,-0.486 -1.937,0 -0.484,0.486 -1.13,1.452 -1.454,2.422 l -0.484,1.613 8.717,2.26 z"
           fill="url(#B)"
           id="path380"
           style="fill:url(#radialGradient464);stroke-width:0.00952784" /><path
           d="m 0,55.955 c 0,0 0.324,-0.806 0.808,-1.132 0.484,-0.326 4.842,-11.299 5.328,-12.43 0.486,-1.131 8.554,-13.399 9.201,-13.238 0.647,0.161 5.327,-0.484 6.943,-0.322 1.616,0.162 3.874,1.292 4.52,1.776 0.646,0.484 1.13,1.776 1.13,1.776 l -3.39,0.968 c 0,0 -0.97,-1.128 -1.938,-1.29 -0.968,-0.162 -4.682,0 -5.65,0.162 -0.968,0.162 -9.041,9.524 -9.364,10.169 -0.323,0.645 -4.844,10.01 -5.004,10.818 L 2.26,54.825 c 0,0 -0.323,0.97 -0.967,0.97 -0.644,0 -1.293,0.16 -1.293,0.16 z"
           fill="url(#C)"
           id="path382"
           style="fill:url(#linearGradient466);stroke-width:0.00952784" /><path
           d="m 33.094,33.514 c 0.325,-0.484 1.779,-0.968 2.423,-1.452 0.644,-0.484 0.97,-2.422 0.97,-2.422 0,0 1.614,-0.97 3.39,-1.13 1.776,-0.16 3.39,-0.484 4.842,-0.162 1.452,0.322 2.259,0.162 2.908,0.969 0.649,0.807 1.612,4.198 1.291,5.167 -0.321,0.969 -3.229,3.389 -4.036,4.196 -0.807,0.807 -3.551,1.453 -4.36,1.453 -0.809,0 -2.097,0.323 -3.228,0.323 -1.131,0 -4.036,-3.552 -4.52,-4.198 -0.484,-0.646 -0.002,-2.261 0.319,-2.744 z"
           fill="url(#B)"
           id="path384"
           style="fill:url(#radialGradient468);stroke-width:0.00952784" /><path
           d="m 35.841,35.451 c 0.646,0.806 1.13,1.453 1.453,2.26 0.323,0.807 0.645,4.842 -0.807,6.134 -1.452,1.292 -3.877,3.068 -4.843,3.712 -0.966,0.644 -1.938,1.938 -3.553,1.938 -1.615,0 -3.066,-0.968 -4.842,-1.938 -1.776,-0.97 -3.552,-2.582 -4.036,-3.872 -0.484,-1.29 -0.646,-4.198 0.484,-5.814 1.13,-1.616 3.874,-4.358 3.874,-4.358 0,0 1.938,-1.452 3.714,-1.776 1.776,-0.324 3.228,-0.162 4.198,0.162 0.97,0.324 3.712,2.742 4.359,3.551 z"
           fill="#272023"
           id="path386"
           style="stroke-width:0.00952784" /><path
           d="m 20.665,44.653 c -0.322,-0.968 -0.645,-3.068 -0.16,-4.36 0.485,-1.292 3.228,-4.682 5.166,-5.327 1.938,-0.645 3.066,-0.808 5.326,-0.645 2.26,0.163 3.714,1.936 3.714,1.936 0,0 -2.582,0 -4.037,0.486 -1.455,0.486 -3.227,1.612 -4.681,2.744 -1.454,1.132 -2.422,2.905 -2.584,3.873 -0.162,0.968 -0.16,1.454 -0.806,1.938 -0.646,0.484 -1.292,0 -1.292,0 0,0 -0.322,0.322 -0.645,-0.645 z"
           fill="url(#D)"
           id="path388"
           style="fill:url(#linearGradient470);stroke-width:0.00952784" /></g><path
         d="m 21.795,41.426 c 0,0 -0.323,-2.262 1.454,-3.876 1.777,-1.614 3.389,-1.776 3.389,-1.776 0,0 -1.451,0.646 -3.228,2.422 -1.777,1.776 -1.615,3.229 -1.615,3.229 z"
         stroke="none"
         opacity="0.3"
         class="B"
         id="path392"
         style="stroke-width:0.00732973" /><g
         class="C D"
         id="g402"><path
           d="m 44.882,29.801 c 0,0 -2.098,-9.688 -1.614,-10.656 0.484,-0.968 5.004,-3.876 6.296,-4.358 1.292,-0.482 8.719,-3.39 9.362,-3.39 0.643,0 10.495,0.484 11.141,0.645 0.646,0.161 4.52,1.778 4.52,1.778 0,0 -3.066,0 -4.842,-0.324 -1.776,-0.324 -9.365,-0.646 -10.654,-0.486 -1.289,0.16 -3.552,2.26 -4.52,2.746 -0.968,0.486 -4.682,2.584 -5.651,2.906 -0.969,0.322 -3.067,0.968 -3.229,1.776 -0.162,0.808 2.099,9.848 2.099,9.848 l -2.907,-0.482 z"
           fill="url(#E)"
           class="B"
           id="path394"
           style="fill:url(#linearGradient472);stroke-width:0.00952784" /><path
           d="m 67.968,37.551 c 0,0 -0.646,0.968 -1.452,0.806 -0.806,-0.162 -1.292,0.162 -1.938,-0.484 -0.646,-0.646 -6.78,-2.421 -8.396,-3.228 -1.616,-0.807 -4.842,-0.808 -5.972,-0.97 -1.13,-0.162 -3.231,-1.128 -3.715,-0.966 -0.484,0.162 0.325,0.644 -0.484,1.29 -0.809,0.646 -1.452,0.324 -1.936,-0.162 -0.484,-0.486 -0.807,-2.098 -0.323,-2.906 0.484,-0.808 0.807,-1.614 1.938,-1.776 1.131,-0.162 3.229,0.808 5.004,1.454 1.775,0.646 4.36,0.968 5.488,1.454 1.128,0.486 3.229,2.422 5.006,2.906 1.777,0.484 3.228,1.453 4.036,1.776 0.808,0.323 2.746,0.805 2.746,0.805 z"
           fill="url(#F)"
           class="B"
           id="path396"
           style="fill:url(#linearGradient474);stroke-width:0.00952784" /><path
           d="m 23.732,72.26 1.614,-10.98 c 0.324,-1.291 1.454,-13.883 1.616,-14.691 0.162,-0.808 -0.162,-2.744 0.322,-3.23 0.484,-0.486 0.646,-1.129 1.452,-1.129 0.806,0 0.969,1.776 0.969,1.776 l -1.615,10.17 c 0,0.808 -1.29,5.652 -1.454,6.942 -0.164,1.29 -0.807,9.846 -1.612,10.494 -0.805,0.648 -1.291,0.648 -1.291,0.648 z"
           fill="url(#G)"
           class="B"
           id="path398"
           style="fill:url(#linearGradient476);stroke-width:0.00952784" /><path
           d="m 44.234,58.86 c 0,0 0.646,0.645 0.97,0 0.324,-0.645 0,-1.452 -0.324,-2.584 -0.324,-1.132 -1.13,-2.583 -1.775,-4.036 -0.645,-1.453 -0.485,-7.748 -1.131,-8.717 -0.646,-0.969 -1.29,-5.652 -1.454,-6.458 -0.164,-0.806 -0.969,-1.292 -1.775,-1.292 -0.806,0 -1.292,0.97 -1.292,0.97 l 0.646,3.873 c 0.324,1.454 2.098,6.458 2.26,7.266 0.162,0.808 0.97,1.13 1.292,2.42 0.322,1.29 -0.322,2.26 0.322,3.392 0.644,1.132 1.615,2.26 1.776,3.067 l 0.485,2.097 z"
           fill="url(#H)"
           class="B"
           id="path400"
           style="fill:url(#linearGradient478);stroke-width:0.00952784" /></g><path
         d="m 45.29,18.538 c 0,0 -0.15,-0.997 2.885,-2.631 3.035,-1.634 5.908,-2.089 5.908,-2.089 0,0 -2.542,0.803 -5.561,2.565 -3.019,1.762 -3.23,2.154 -3.23,2.154 z m 1.413,11.274 c 0,0 0.354,-0.52 2.969,0.442 a 22.55,22.55 0 0 1 4.605,2.354 c 0,0 -1.94,-1.054 -4.602,-1.953 L 46.704,29.812 Z M 31.435,15.046 c 0,0 -0.569,-0.414 0.749,-3.464 1.318,-3.05 3.079,-5.365 3.079,-5.365 0,0 -1.368,2.259 -2.618,5.364 l -1.21,3.466 z"
         stroke="none"
         opacity="0.3"
         class="B"
         id="path404"
         style="stroke-width:0.00732973" /></symbol></g><g
     style="fill:#ffffff;fill-rule:evenodd;stroke:#000000;stroke-width:0.186064;stroke-linecap:round;stroke-linejoin:round"
     id="g442"
     transform="matrix(-5.3742389,0,0,5.374725,2116.8357,-3749.1454)"><g
       id="use410"
       style="stroke-width:0.186064"
       transform="translate(0.5,0.5)"><g
         class="B C D"
         id="g880"><path
           d="M 49.143,0.786 43.331,0.029 c -2.023,-0.254 -5.81,1.263 -5.81,1.263 l -4.087,7.251 c -0.968,1.591 -3.216,6.811 -2.989,7.656 0.227,0.845 8.087,13.394 8.087,13.394 L 29.706,24.312 C 29.222,23.99 29.434,19.486 29.434,19.486 l 1.515,1.516 c 1.013,1.012 1.772,1.517 1.772,1.517 0,0 -0.622,-1.786 -1.886,-3.05 -1.264,-1.264 -2.1,-1.891 -2.663,-1.752 -0.563,0.139 -1.095,6.628 -0.505,7.582 0.59,0.954 8.843,6.063 8.843,6.063 l 3.284,-0.253 1.011,-2.527 c 0,0 -2.778,-4.042 -4.043,-6.568 -1.265,-2.526 -4.041,-6.824 -4.041,-6.824 0,0 1.767,-4.8 2.778,-6.317 1.011,-1.517 2.779,-5.812 2.779,-5.812 0,0 2.527,-2.021 4.802,-1.768 2.275,0.253 6.064,-0.505 6.064,-0.505 z"
           fill="url(#A)"
           id="path868"
           style="fill:url(#linearGradient898);stroke-width:0.00952784" /><path
           d="m 34.064,33.673 -2.421,-3.712 c 0,0 -1.614,-2.582 -2.422,-2.582 -0.808,0 -1.453,-0.486 -1.937,0 -0.484,0.486 -1.13,1.452 -1.454,2.422 l -0.484,1.613 8.717,2.26 z"
           fill="url(#B)"
           id="path870"
           style="fill:url(#radialGradient900);stroke-width:0.00952784" /><path
           d="m 0,55.955 c 0,0 0.324,-0.806 0.808,-1.132 0.484,-0.326 4.842,-11.299 5.328,-12.43 0.486,-1.131 8.554,-13.399 9.201,-13.238 0.647,0.161 5.327,-0.484 6.943,-0.322 1.616,0.162 3.874,1.292 4.52,1.776 0.646,0.484 1.13,1.776 1.13,1.776 l -3.39,0.968 c 0,0 -0.97,-1.128 -1.938,-1.29 -0.968,-0.162 -4.682,0 -5.65,0.162 -0.968,0.162 -9.041,9.524 -9.364,10.169 -0.323,0.645 -4.844,10.01 -5.004,10.818 L 2.26,54.825 c 0,0 -0.323,0.97 -0.967,0.97 -0.644,0 -1.293,0.16 -1.293,0.16 z"
           fill="url(#C)"
           id="path872"
           style="fill:url(#linearGradient902);stroke-width:0.00952784" /><path
           d="m 33.094,33.514 c 0.325,-0.484 1.779,-0.968 2.423,-1.452 0.644,-0.484 0.97,-2.422 0.97,-2.422 0,0 1.614,-0.97 3.39,-1.13 1.776,-0.16 3.39,-0.484 4.842,-0.162 1.452,0.322 2.259,0.162 2.908,0.969 0.649,0.807 1.612,4.198 1.291,5.167 -0.321,0.969 -3.229,3.389 -4.036,4.196 -0.807,0.807 -3.551,1.453 -4.36,1.453 -0.809,0 -2.097,0.323 -3.228,0.323 -1.131,0 -4.036,-3.552 -4.52,-4.198 -0.484,-0.646 -0.002,-2.261 0.319,-2.744 z"
           fill="url(#B)"
           id="path874"
           style="fill:url(#radialGradient904);stroke-width:0.00952784" /><path
           d="m 35.841,35.451 c 0.646,0.806 1.13,1.453 1.453,2.26 0.323,0.807 0.645,4.842 -0.807,6.134 -1.452,1.292 -3.877,3.068 -4.843,3.712 -0.966,0.644 -1.938,1.938 -3.553,1.938 -1.615,0 -3.066,-0.968 -4.842,-1.938 -1.776,-0.97 -3.552,-2.582 -4.036,-3.872 -0.484,-1.29 -0.646,-4.198 0.484,-5.814 1.13,-1.616 3.874,-4.358 3.874,-4.358 0,0 1.938,-1.452 3.714,-1.776 1.776,-0.324 3.228,-0.162 4.198,0.162 0.97,0.324 3.712,2.742 4.359,3.551 z"
           fill="#272023"
           id="path876"
           style="stroke-width:0.00952784" /><path
           d="m 20.665,44.653 c -0.322,-0.968 -0.645,-3.068 -0.16,-4.36 0.485,-1.292 3.228,-4.682 5.166,-5.327 1.938,-0.645 3.066,-0.808 5.326,-0.645 2.26,0.163 3.714,1.936 3.714,1.936 0,0 -2.582,0 -4.037,0.486 -1.455,0.486 -3.227,1.612 -4.681,2.744 -1.454,1.132 -2.422,2.905 -2.584,3.873 -0.162,0.968 -0.16,1.454 -0.806,1.938 -0.646,0.484 -1.292,0 -1.292,0 0,0 -0.322,0.322 -0.645,-0.645 z"
           fill="url(#D)"
           id="path878"
           style="fill:url(#linearGradient906);stroke-width:0.00952784" /></g><path
         d="m 21.795,41.426 c 0,0 -0.323,-2.262 1.454,-3.876 1.777,-1.614 3.389,-1.776 3.389,-1.776 0,0 -1.451,0.646 -3.228,2.422 -1.777,1.776 -1.615,3.229 -1.615,3.229 z"
         stroke="none"
         opacity="0.3"
         class="B"
         id="path882"
         style="stroke-width:0.00732973" /><g
         class="C D"
         id="g892"><path
           d="m 44.882,29.801 c 0,0 -2.098,-9.688 -1.614,-10.656 0.484,-0.968 5.004,-3.876 6.296,-4.358 1.292,-0.482 8.719,-3.39 9.362,-3.39 0.643,0 10.495,0.484 11.141,0.645 0.646,0.161 4.52,1.778 4.52,1.778 0,0 -3.066,0 -4.842,-0.324 -1.776,-0.324 -9.365,-0.646 -10.654,-0.486 -1.289,0.16 -3.552,2.26 -4.52,2.746 -0.968,0.486 -4.682,2.584 -5.651,2.906 -0.969,0.322 -3.067,0.968 -3.229,1.776 -0.162,0.808 2.099,9.848 2.099,9.848 l -2.907,-0.482 z"
           fill="url(#E)"
           class="B"
           id="path884"
           style="fill:url(#linearGradient908);stroke-width:0.00952784" /><path
           d="m 67.968,37.551 c 0,0 -0.646,0.968 -1.452,0.806 -0.806,-0.162 -1.292,0.162 -1.938,-0.484 -0.646,-0.646 -6.78,-2.421 -8.396,-3.228 -1.616,-0.807 -4.842,-0.808 -5.972,-0.97 -1.13,-0.162 -3.231,-1.128 -3.715,-0.966 -0.484,0.162 0.325,0.644 -0.484,1.29 -0.809,0.646 -1.452,0.324 -1.936,-0.162 -0.484,-0.486 -0.807,-2.098 -0.323,-2.906 0.484,-0.808 0.807,-1.614 1.938,-1.776 1.131,-0.162 3.229,0.808 5.004,1.454 1.775,0.646 4.36,0.968 5.488,1.454 1.128,0.486 3.229,2.422 5.006,2.906 1.777,0.484 3.228,1.453 4.036,1.776 0.808,0.323 2.746,0.805 2.746,0.805 z"
           fill="url(#F)"
           class="B"
           id="path886"
           style="fill:url(#linearGradient910);stroke-width:0.00952784" /><path
           d="m 23.732,72.26 1.614,-10.98 c 0.324,-1.291 1.454,-13.883 1.616,-14.691 0.162,-0.808 -0.162,-2.744 0.322,-3.23 0.484,-0.486 0.646,-1.129 1.452,-1.129 0.806,0 0.969,1.776 0.969,1.776 l -1.615,10.17 c 0,0.808 -1.29,5.652 -1.454,6.942 -0.164,1.29 -0.807,9.846 -1.612,10.494 -0.805,0.648 -1.291,0.648 -1.291,0.648 z"
           fill="url(#G)"
           class="B"
           id="path888"
           style="fill:url(#linearGradient912);stroke-width:0.00952784" /><path
           d="m 44.234,58.86 c 0,0 0.646,0.645 0.97,0 0.324,-0.645 0,-1.452 -0.324,-2.584 -0.324,-1.132 -1.13,-2.583 -1.775,-4.036 -0.645,-1.453 -0.485,-7.748 -1.131,-8.717 -0.646,-0.969 -1.29,-5.652 -1.454,-6.458 -0.164,-0.806 -0.969,-1.292 -1.775,-1.292 -0.806,0 -1.292,0.97 -1.292,0.97 l 0.646,3.873 c 0.324,1.454 2.098,6.458 2.26,7.266 0.162,0.808 0.97,1.13 1.292,2.42 0.322,1.29 -0.322,2.26 0.322,3.392 0.644,1.132 1.615,2.26 1.776,3.067 l 0.485,2.097 z"
           fill="url(#H)"
           class="B"
           id="path890"
           style="fill:url(#linearGradient914);stroke-width:0.00952784" /></g><path
         d="m 45.29,18.538 c 0,0 -0.15,-0.997 2.885,-2.631 3.035,-1.634 5.908,-2.089 5.908,-2.089 0,0 -2.542,0.803 -5.561,2.565 -3.019,1.762 -3.23,2.154 -3.23,2.154 z m 1.413,11.274 c 0,0 0.354,-0.52 2.969,0.442 a 22.55,22.55 0 0 1 4.605,2.354 c 0,0 -1.94,-1.054 -4.602,-1.953 L 46.704,29.812 Z M 31.435,15.046 c 0,0 -0.569,-0.414 0.749,-3.464 1.318,-3.05 3.079,-5.365 3.079,-5.365 0,0 -1.368,2.259 -2.618,5.364 l -1.21,3.466 z"
         stroke="none"
         opacity="0.3"
         class="B"
         id="path894"
         style="stroke-width:0.00732973" /></g><symbol
       id="symbol440"
       overflow="visible"
       style="stroke-width:0.0369296"><g
         class="B C D"
         id="g424"><path
           d="M 49.143,0.786 43.331,0.029 c -2.023,-0.254 -5.81,1.263 -5.81,1.263 l -4.087,7.251 c -0.968,1.591 -3.216,6.811 -2.989,7.656 0.227,0.845 8.087,13.394 8.087,13.394 L 29.706,24.312 C 29.222,23.99 29.434,19.486 29.434,19.486 l 1.515,1.516 c 1.013,1.012 1.772,1.517 1.772,1.517 0,0 -0.622,-1.786 -1.886,-3.05 -1.264,-1.264 -2.1,-1.891 -2.663,-1.752 -0.563,0.139 -1.095,6.628 -0.505,7.582 0.59,0.954 8.843,6.063 8.843,6.063 l 3.284,-0.253 1.011,-2.527 c 0,0 -2.778,-4.042 -4.043,-6.568 -1.265,-2.526 -4.041,-6.824 -4.041,-6.824 0,0 1.767,-4.8 2.778,-6.317 1.011,-1.517 2.779,-5.812 2.779,-5.812 0,0 2.527,-2.021 4.802,-1.768 2.275,0.253 6.064,-0.505 6.064,-0.505 z"
           fill="url(#A)"
           id="path412"
           style="fill:url(#linearGradient444);stroke-width:0.00952784" /><path
           d="m 34.064,33.673 -2.421,-3.712 c 0,0 -1.614,-2.582 -2.422,-2.582 -0.808,0 -1.453,-0.486 -1.937,0 -0.484,0.486 -1.13,1.452 -1.454,2.422 l -0.484,1.613 8.717,2.26 z"
           fill="url(#B)"
           id="path414"
           style="fill:url(#radialGradient446);stroke-width:0.00952784" /><path
           d="m 0,55.955 c 0,0 0.324,-0.806 0.808,-1.132 0.484,-0.326 4.842,-11.299 5.328,-12.43 0.486,-1.131 8.554,-13.399 9.201,-13.238 0.647,0.161 5.327,-0.484 6.943,-0.322 1.616,0.162 3.874,1.292 4.52,1.776 0.646,0.484 1.13,1.776 1.13,1.776 l -3.39,0.968 c 0,0 -0.97,-1.128 -1.938,-1.29 -0.968,-0.162 -4.682,0 -5.65,0.162 -0.968,0.162 -9.041,9.524 -9.364,10.169 -0.323,0.645 -4.844,10.01 -5.004,10.818 L 2.26,54.825 c 0,0 -0.323,0.97 -0.967,0.97 -0.644,0 -1.293,0.16 -1.293,0.16 z"
           fill="url(#C)"
           id="path416"
           style="fill:url(#linearGradient448);stroke-width:0.00952784" /><path
           d="m 33.094,33.514 c 0.325,-0.484 1.779,-0.968 2.423,-1.452 0.644,-0.484 0.97,-2.422 0.97,-2.422 0,0 1.614,-0.97 3.39,-1.13 1.776,-0.16 3.39,-0.484 4.842,-0.162 1.452,0.322 2.259,0.162 2.908,0.969 0.649,0.807 1.612,4.198 1.291,5.167 -0.321,0.969 -3.229,3.389 -4.036,4.196 -0.807,0.807 -3.551,1.453 -4.36,1.453 -0.809,0 -2.097,0.323 -3.228,0.323 -1.131,0 -4.036,-3.552 -4.52,-4.198 -0.484,-0.646 -0.002,-2.261 0.319,-2.744 z"
           fill="url(#B)"
           id="path418"
           style="fill:url(#radialGradient450);stroke-width:0.00952784" /><path
           d="m 35.841,35.451 c 0.646,0.806 1.13,1.453 1.453,2.26 0.323,0.807 0.645,4.842 -0.807,6.134 -1.452,1.292 -3.877,3.068 -4.843,3.712 -0.966,0.644 -1.938,1.938 -3.553,1.938 -1.615,0 -3.066,-0.968 -4.842,-1.938 -1.776,-0.97 -3.552,-2.582 -4.036,-3.872 -0.484,-1.29 -0.646,-4.198 0.484,-5.814 1.13,-1.616 3.874,-4.358 3.874,-4.358 0,0 1.938,-1.452 3.714,-1.776 1.776,-0.324 3.228,-0.162 4.198,0.162 0.97,0.324 3.712,2.742 4.359,3.551 z"
           fill="#272023"
           id="path420"
           style="stroke-width:0.00952784" /><path
           d="m 20.665,44.653 c -0.322,-0.968 -0.645,-3.068 -0.16,-4.36 0.485,-1.292 3.228,-4.682 5.166,-5.327 1.938,-0.645 3.066,-0.808 5.326,-0.645 2.26,0.163 3.714,1.936 3.714,1.936 0,0 -2.582,0 -4.037,0.486 -1.455,0.486 -3.227,1.612 -4.681,2.744 -1.454,1.132 -2.422,2.905 -2.584,3.873 -0.162,0.968 -0.16,1.454 -0.806,1.938 -0.646,0.484 -1.292,0 -1.292,0 0,0 -0.322,0.322 -0.645,-0.645 z"
           fill="url(#D)"
           id="path422"
           style="fill:url(#linearGradient452);stroke-width:0.00952784" /></g><path
         d="m 21.795,41.426 c 0,0 -0.323,-2.262 1.454,-3.876 1.777,-1.614 3.389,-1.776 3.389,-1.776 0,0 -1.451,0.646 -3.228,2.422 -1.777,1.776 -1.615,3.229 -1.615,3.229 z"
         stroke="none"
         opacity="0.3"
         class="B"
         id="path426"
         style="stroke-width:0.00732973" /><g
         class="C D"
         id="g436"><path
           d="m 44.882,29.801 c 0,0 -2.098,-9.688 -1.614,-10.656 0.484,-0.968 5.004,-3.876 6.296,-4.358 1.292,-0.482 8.719,-3.39 9.362,-3.39 0.643,0 10.495,0.484 11.141,0.645 0.646,0.161 4.52,1.778 4.52,1.778 0,0 -3.066,0 -4.842,-0.324 -1.776,-0.324 -9.365,-0.646 -10.654,-0.486 -1.289,0.16 -3.552,2.26 -4.52,2.746 -0.968,0.486 -4.682,2.584 -5.651,2.906 -0.969,0.322 -3.067,0.968 -3.229,1.776 -0.162,0.808 2.099,9.848 2.099,9.848 l -2.907,-0.482 z"
           fill="url(#E)"
           class="B"
           id="path428"
           style="fill:url(#linearGradient454);stroke-width:0.00952784" /><path
           d="m 67.968,37.551 c 0,0 -0.646,0.968 -1.452,0.806 -0.806,-0.162 -1.292,0.162 -1.938,-0.484 -0.646,-0.646 -6.78,-2.421 -8.396,-3.228 -1.616,-0.807 -4.842,-0.808 -5.972,-0.97 -1.13,-0.162 -3.231,-1.128 -3.715,-0.966 -0.484,0.162 0.325,0.644 -0.484,1.29 -0.809,0.646 -1.452,0.324 -1.936,-0.162 -0.484,-0.486 -0.807,-2.098 -0.323,-2.906 0.484,-0.808 0.807,-1.614 1.938,-1.776 1.131,-0.162 3.229,0.808 5.004,1.454 1.775,0.646 4.36,0.968 5.488,1.454 1.128,0.486 3.229,2.422 5.006,2.906 1.777,0.484 3.228,1.453 4.036,1.776 0.808,0.323 2.746,0.805 2.746,0.805 z"
           fill="url(#F)"
           class="B"
           id="path430"
           style="fill:url(#linearGradient456);stroke-width:0.00952784" /><path
           d="m 23.732,72.26 1.614,-10.98 c 0.324,-1.291 1.454,-13.883 1.616,-14.691 0.162,-0.808 -0.162,-2.744 0.322,-3.23 0.484,-0.486 0.646,-1.129 1.452,-1.129 0.806,0 0.969,1.776 0.969,1.776 l -1.615,10.17 c 0,0.808 -1.29,5.652 -1.454,6.942 -0.164,1.29 -0.807,9.846 -1.612,10.494 -0.805,0.648 -1.291,0.648 -1.291,0.648 z"
           fill="url(#G)"
           class="B"
           id="path432"
           style="fill:url(#linearGradient458);stroke-width:0.00952784" /><path
           d="m 44.234,58.86 c 0,0 0.646,0.645 0.97,0 0.324,-0.645 0,-1.452 -0.324,-2.584 -0.324,-1.132 -1.13,-2.583 -1.775,-4.036 -0.645,-1.453 -0.485,-7.748 -1.131,-8.717 -0.646,-0.969 -1.29,-5.652 -1.454,-6.458 -0.164,-0.806 -0.969,-1.292 -1.775,-1.292 -0.806,0 -1.292,0.97 -1.292,0.97 l 0.646,3.873 c 0.324,1.454 2.098,6.458 2.26,7.266 0.162,0.808 0.97,1.13 1.292,2.42 0.322,1.29 -0.322,2.26 0.322,3.392 0.644,1.132 1.615,2.26 1.776,3.067 l 0.485,2.097 z"
           fill="url(#H)"
           class="B"
           id="path434"
           style="fill:url(#linearGradient460);stroke-width:0.00952784" /></g><path
         d="m 45.29,18.538 c 0,0 -0.15,-0.997 2.885,-2.631 3.035,-1.634 5.908,-2.089 5.908,-2.089 0,0 -2.542,0.803 -5.561,2.565 -3.019,1.762 -3.23,2.154 -3.23,2.154 z m 1.413,11.274 c 0,0 0.354,-0.52 2.969,0.442 a 22.55,22.55 0 0 1 4.605,2.354 c 0,0 -1.94,-1.054 -4.602,-1.953 L 46.704,29.812 Z M 31.435,15.046 c 0,0 -0.569,-0.414 0.749,-3.464 1.318,-3.05 3.079,-5.365 3.079,-5.365 0,0 -1.368,2.259 -2.618,5.364 l -1.21,3.466 z"
         stroke="none"
         opacity="0.3"
         class="B"
         id="path438"
         style="stroke-width:0.00732973" /></symbol></g></g></svg>
